<svg width="40" height="40" viewBox="0 0 40 40" fill="none" xmlns="http://www.w3.org/2000/svg">
<g id="fluent:delete-48-filled">
<path id="Vector" d="M16.667 8.75V9.16667H23.3337V8.75C23.3337 7.86594 22.9825 7.0181 22.3573 6.39298C21.7322 5.76785 20.8844 5.41667 20.0003 5.41667C19.1163 5.41667 18.2684 5.76785 17.6433 6.39298C17.0182 7.0181 16.667 7.86594 16.667 8.75ZM14.5837 9.16667V8.75C14.5837 7.31341 15.1543 5.93566 16.1702 4.91984C17.186 3.90401 18.5637 3.33333 20.0003 3.33333C21.4369 3.33333 22.8147 3.90401 23.8305 4.91984C24.8463 5.93566 25.417 7.31341 25.417 8.75V9.16667H34.792C35.0683 9.16667 35.3332 9.27641 35.5286 9.47176C35.7239 9.66711 35.8337 9.93207 35.8337 10.2083C35.8337 10.4846 35.7239 10.7496 35.5286 10.9449C35.3332 11.1403 35.0683 11.25 34.792 11.25H32.3612L30.6945 31.13C30.5679 32.6397 29.8787 34.0467 28.7635 35.0722C27.6484 36.0976 26.1886 36.6667 24.6737 36.6667H15.327C13.8122 36.6665 12.3526 36.0973 11.2377 35.0719C10.1227 34.0464 9.43361 32.6395 9.30699 31.13L7.64033 11.25H5.20866C4.93239 11.25 4.66744 11.1403 4.47209 10.9449C4.27674 10.7496 4.16699 10.4846 4.16699 10.2083C4.16699 9.93207 4.27674 9.66711 4.47209 9.47176C4.66744 9.27641 4.93239 9.16667 5.20866 9.16667H14.5837ZM17.917 16.875C17.917 16.7382 17.89 16.6028 17.8377 16.4764C17.7853 16.35 17.7086 16.2352 17.6119 16.1384C17.5152 16.0417 17.4003 15.965 17.274 15.9126C17.1476 15.8603 17.0121 15.8333 16.8753 15.8333C16.7385 15.8333 16.6031 15.8603 16.4767 15.9126C16.3503 15.965 16.2355 16.0417 16.1388 16.1384C16.042 16.2352 15.9653 16.35 15.9129 16.4764C15.8606 16.6028 15.8337 16.7382 15.8337 16.875V28.9583C15.8337 29.0951 15.8606 29.2306 15.9129 29.357C15.9653 29.4833 16.042 29.5982 16.1388 29.6949C16.2355 29.7916 16.3503 29.8684 16.4767 29.9207C16.6031 29.9731 16.7385 30 16.8753 30C17.0121 30 17.1476 29.9731 17.274 29.9207C17.4003 29.8684 17.5152 29.7916 17.6119 29.6949C17.7086 29.5982 17.7853 29.4833 17.8377 29.357C17.89 29.2306 17.917 29.0951 17.917 28.9583V16.875ZM23.1253 15.8333C22.5503 15.8333 22.0837 16.3 22.0837 16.875V28.9583C22.0837 29.2346 22.1934 29.4996 22.3888 29.6949C22.5841 29.8903 22.8491 30 23.1253 30C23.4016 30 23.6665 29.8903 23.8619 29.6949C24.0572 29.4996 24.167 29.2346 24.167 28.9583V16.875C24.167 16.3 23.7003 15.8333 23.1253 15.8333Z" fill="#FF4600"/>
</g>
</svg>
