<svg width="32" height="32" viewBox="0 0 32 32" fill="none" xmlns="http://www.w3.org/2000/svg">
<g id="mingcute:search-line" clip-path="url(#clip0_363_596)">
<g id="Group">
<path id="Vector" fill-rule="evenodd" clip-rule="evenodd" d="M14.0003 2.66667C12.1931 2.66683 10.4122 3.09916 8.80601 3.9276C7.19987 4.75604 5.81513 5.95656 4.76732 7.42901C3.71951 8.90146 3.03902 10.6031 2.78262 12.3921C2.52621 14.181 2.70134 16.0053 3.29338 17.7128C3.88541 19.4203 4.8772 20.9614 6.18599 22.2076C7.49478 23.4539 9.08261 24.369 10.817 24.8768C12.5514 25.3846 14.3821 25.4702 16.1564 25.1266C17.9306 24.7829 19.5969 24.02 21.0163 22.9013L25.8857 27.7707C26.1371 28.0135 26.4739 28.1479 26.8235 28.1449C27.1731 28.1419 27.5076 28.0016 27.7548 27.7544C28.002 27.5072 28.1422 27.1728 28.1452 26.8232C28.1483 26.4736 28.0139 26.1368 27.771 25.8853L22.9017 21.016C24.219 19.3448 25.0392 17.3365 25.2685 15.221C25.4977 13.1054 25.1267 10.968 24.198 9.05346C23.2692 7.13889 21.8202 5.52448 20.0167 4.39498C18.2133 3.26548 16.1283 2.66653 14.0003 2.66667ZM5.33367 14C5.33367 11.7015 6.24676 9.49706 7.87208 7.87175C9.4974 6.24643 11.7018 5.33334 14.0003 5.33334C16.2989 5.33334 18.5033 6.24643 20.1286 7.87175C21.7539 9.49706 22.667 11.7015 22.667 14C22.667 16.2985 21.7539 18.5029 20.1286 20.1283C18.5033 21.7536 16.2989 22.6667 14.0003 22.6667C11.7018 22.6667 9.4974 21.7536 7.87208 20.1283C6.24676 18.5029 5.33367 16.2985 5.33367 14Z" fill="#DADADA"/>
</g>
</g>
<defs>
<clipPath id="clip0_363_596">
<rect width="32" height="32" fill="white"/>
</clipPath>
</defs>
</svg>
