<svg width="57" height="32" viewBox="0 0 57 32" fill="none" xmlns="http://www.w3.org/2000/svg">
<g id="ion:toggle">
<g clip-path="url(#clip0_366_628)">
<rect width="56.8889" height="32" rx="16" fill="white"/>
<path id="Vector" d="M40.8889 0H16C7.17778 0 0 7.17778 0 16C0 24.8222 7.17778 32 16 32H40.8889C49.7111 32 56.8889 24.8222 56.8889 16C56.8889 7.17778 49.7111 0 40.8889 0ZM40.8889 28.4444C38.4276 28.4444 36.0216 27.7146 33.9751 26.3472C31.9286 24.9798 30.3336 23.0362 29.3917 20.7623C28.4498 18.4884 28.2034 15.9862 28.6836 13.5722C29.1637 11.1582 30.349 8.94084 32.0893 7.20045C33.8297 5.46006 36.0471 4.27484 38.4611 3.79467C40.8751 3.3145 43.3773 3.56094 45.6512 4.50283C47.9251 5.44472 49.8687 7.03976 51.2361 9.08624C52.6035 11.1327 53.3333 13.5387 53.3333 16C53.3298 19.2994 52.0176 22.4626 49.6845 24.7957C47.3515 27.1287 44.1883 28.4409 40.8889 28.4444Z" fill="#FF4600"/>
</g>
</g>
<defs>
<clipPath id="clip0_366_628">
<rect width="56.8889" height="32" rx="16" fill="white"/>
</clipPath>
</defs>
</svg>
