<svg width="57" height="32" viewBox="0 0 57 32" fill="none" xmlns="http://www.w3.org/2000/svg">
<g id="ion:toggle">
<g clip-path="url(#clip0_364_601)">
<rect width="56.8889" height="32" rx="16" fill="white"/>
<path id="Vector" d="M15.9998 0H40.8887C49.7109 0 56.8887 7.17778 56.8887 16C56.8887 24.8222 49.7109 32 40.8887 32H15.9998C7.17756 32 -0.000221252 24.8222 -0.000221252 16C-0.000221252 7.17778 7.17756 0 15.9998 0ZM15.9998 28.4444C18.4611 28.4444 20.8671 27.7146 22.9135 26.3472C24.96 24.9798 26.5551 23.0362 27.497 20.7623C28.4388 18.4884 28.6853 15.9862 28.2051 13.5722C27.7249 11.1582 26.5397 8.94084 24.7993 7.20045C23.0589 5.46006 20.8416 4.27484 18.4276 3.79467C16.0136 3.3145 13.5114 3.56094 11.2375 4.50283C8.96357 5.44472 7.02002 7.03976 5.6526 9.08624C4.28519 11.1327 3.55534 13.5387 3.55534 16C3.55886 19.2994 4.87111 22.4626 7.20412 24.7957C9.53715 27.1287 12.7004 28.4409 15.9998 28.4444Z" fill="#3F3F3F"/>
</g>
</g>
<defs>
<clipPath id="clip0_364_601">
<rect width="56.8889" height="32" rx="16" fill="white"/>
</clipPath>
</defs>
</svg>
